<svg width="30" height="30" viewBox="0 0 30 30" fill="none" xmlns="http://www.w3.org/2000/svg">
<path d="M0 1.57704H5.955L6.63625 4.01531H29.2338L24.6513 17.4258H9.725L9.1 19.8641H27.5V22.3024H5.9L7.4575 16.2201L4.045 4.01531H0V1.57704ZM9.705 14.9875H22.8488L25.7663 6.45359H7.31875L9.705 14.9875ZM5 25.9598C5 25.3131 5.26339 24.6929 5.73223 24.2356C6.20107 23.7784 6.83696 23.5215 7.5 23.5215C8.16304 23.5215 8.79893 23.7784 9.26777 24.2356C9.73661 24.6929 10 25.3131 10 25.9598C10 26.6064 9.73661 27.2266 9.26777 27.6839C8.79893 28.1411 8.16304 28.398 7.5 28.398C6.83696 28.398 6.20107 28.1411 5.73223 27.6839C5.26339 27.2266 5 26.6064 5 25.9598ZM22.5 25.9598C22.5 25.3131 22.7634 24.6929 23.2322 24.2356C23.7011 23.7784 24.337 23.5215 25 23.5215C25.663 23.5215 26.2989 23.7784 26.7678 24.2356C27.2366 24.6929 27.5 25.3131 27.5 25.9598C27.5 26.6064 27.2366 27.2266 26.7678 27.6839C26.2989 28.1411 25.663 28.398 25 28.398C24.337 28.398 23.7011 28.1411 23.2322 27.6839C22.7634 27.2266 22.5 26.6064 22.5 25.9598Z" fill="#BBA79C"/>
</svg>
