<svg width="30" height="30" viewBox="0 0 30 30" fill="none" xmlns="http://www.w3.org/2000/svg">
<path d="M23.75 12.55H25C25.3315 12.55 25.6495 12.6784 25.8839 12.907C26.1183 13.1357 26.25 13.4458 26.25 13.7691V25.9605C26.25 26.2838 26.1183 26.5939 25.8839 26.8225C25.6495 27.0511 25.3315 27.1796 25 27.1796H5C4.66848 27.1796 4.35054 27.0511 4.11612 26.8225C3.8817 26.5939 3.75 26.2838 3.75 25.9605V13.7691C3.75 13.4458 3.8817 13.1357 4.11612 12.907C4.35054 12.6784 4.66848 12.55 5 12.55H6.25V11.3308C6.25 9.06748 7.17187 6.89684 8.81282 5.29641C10.4538 3.69598 12.6794 2.79687 15 2.79688C17.3206 2.79687 19.5462 3.69598 21.1872 5.29641C22.8281 6.89684 23.75 9.06748 23.75 11.3308V12.55ZM21.25 12.55V11.3308C21.25 9.71415 20.5915 8.16369 19.4194 7.02053C18.2473 5.87737 16.6576 5.23515 15 5.23515C13.3424 5.23515 11.7527 5.87737 10.5806 7.02053C9.40848 8.16369 8.75 9.71415 8.75 11.3308V12.55H21.25ZM13.75 17.4265V22.303H16.25V17.4265H13.75Z" fill="#BBA79C"/>
</svg>
